<?xml version="1.0" encoding="UTF-8" standalone="no"?>
<svg
   xmlns:dc="http://purl.org/dc/elements/1.1/"
   xmlns:cc="http://creativecommons.org/ns#"
   xmlns:rdf="http://www.w3.org/1999/02/22-rdf-syntax-ns#"
   xmlns:svg="http://www.w3.org/2000/svg"
   xmlns="http://www.w3.org/2000/svg"
   xmlns:sodipodi="http://sodipodi.sourceforge.net/DTD/sodipodi-0.dtd"
   xmlns:inkscape="http://www.inkscape.org/namespaces/inkscape"
   width="350"
   height="150"
   viewBox="0 0 350 150"
   version="1.1"
   id="svg8"
   inkscape:version="1.0.2-2 (e86c870879, 2021-01-15)"
   sodipodi:docname="logo.svg">
  <defs
     id="defs2" />
  <sodipodi:namedview
     id="base"
     pagecolor="#ffffff"
     bordercolor="#666666"
     borderopacity="1.0"
     inkscape:pageopacity="0.0"
     inkscape:pageshadow="2"
     inkscape:zoom="1.8101934"
     inkscape:cx="147.83137"
     inkscape:cy="72.863223"
     inkscape:document-units="px"
     inkscape:current-layer="layer1"
     inkscape:document-rotation="0"
     showgrid="false"
     showguides="false"
     inkscape:window-width="1366"
     inkscape:window-height="745"
     inkscape:window-x="-8"
     inkscape:window-y="-8"
     inkscape:window-maximized="1"
     viewbox-height="100"
     viewbox-y="0"
     viewbox-x="0"
     viewbox-width="350"
     showborder="false"
     units="px" />
  <metadata
     id="metadata5">
    <rdf:RDF>
      <cc:Work
         rdf:about="">
        <dc:format>image/svg+xml</dc:format>
        <dc:type
           rdf:resource="http://purl.org/dc/dcmitype/StillImage" />
        <dc:title></dc:title>
      </cc:Work>
    </rdf:RDF>
  </metadata>
  <g
     inkscape:label="Ebene 1"
     inkscape:groupmode="layer"
     id="layer1">
    <path
       style="fill:#737373;fill-opacity:1;stroke:none;stroke-width:0.267664"
       d="m 51.825751,48.578765 c -5.595493,0.508825 -4.488438,8.820829 1.070653,8.105369 5.195336,-0.668889 4.089352,-8.574576 -1.070653,-8.105369 M 9.5350057,55.931737 v 20.877709 c 0,1.695113 -0.011527,3.390487 2.684e-4,5.085594 0.00404,0.591275 -0.096896,1.449931 0.4287944,1.866148 0.4491375,0.355731 1.1790565,0.271145 1.7122405,0.274886 1.33965,0.0091 4.202573,0.580573 4.701764,-1.086168 0.739819,-2.468665 0.116164,-5.975582 0.116164,-8.549427 V 55.931737 h 6.42391 c 0.720818,0 1.907098,0.206627 2.515228,-0.275151 0.525691,-0.416215 0.424779,-1.274877 0.428795,-1.86615 0.0094,-1.359463 0.490901,-3.564735 -1.343132,-3.731484 -5.432756,-0.494376 -11.132638,-0.01587 -16.5900185,-0.01587 -1.9330617,0 -5.137255,-0.6167 -6.9196221,0.161386 -1.2178663,0.53185 -1.39613026,4.954168 -0.19111181,5.565785 C 1.5158151,56.124094 2.6212628,55.93164 3.3787493,55.93164 H 9.5350068 M 147.38142,78.147672 V 66.102841 58.340609 52.719688 c -2.8e-4,-0.660864 0.16706,-1.688953 -0.27515,-2.247569 -0.31692,-0.400155 -0.86806,-0.403356 -1.33215,-0.423974 -1.07708,-0.04736 -4.3589,-0.530247 -4.92285,0.615359 -0.31956,0.649612 -0.16139,1.622569 -0.16139,2.323848 v 5.085601 17.933415 5.620921 c 0.001,0.647741 -0.15099,1.674235 0.42907,2.133812 1.02674,0.813161 3.9325,0.275151 5.19184,0.275151 h 12.58017 c 1.24144,0 3.63941,0.456093 4.70176,-0.275151 1.1183,-0.769537 1.0843,-4.867188 -0.21249,-5.452027 -0.7457,-0.336191 -1.81876,-0.161387 -2.61559,-0.161387 h -5.88859 -7.49456 m 27.83693,0 v -8.297555 h 7.76225 c 0.83564,0 2.3498,0.279989 3.05134,-0.27515 0.39883,-0.316915 0.40148,-0.868029 0.42293,-1.332156 0.0425,-0.981249 0.44966,-3.596054 -0.61559,-4.119872 -0.83697,-0.411928 -2.21678,-0.161386 -3.1263,-0.161386 h -7.4947 v -8.02982 h 11.24186 c 1.31153,0 3.53851,0.426649 4.73229,-0.161387 1.01175,-0.498132 0.90197,-4.209545 0.46034,-5.106747 -0.59149,-1.201271 -4.06045,-0.620443 -5.19266,-0.620443 H 173.3447 c -1.18201,0 -3.74944,-0.478051 -4.65654,0.42905 -0.55408,0.55433 -0.42775,1.535851 -0.42907,2.24757 v 5.085589 19.004074 l 2.7e-4,4.817934 c 0.003,0.613751 -0.0935,1.463317 0.31528,1.979902 0.49653,0.626874 1.66326,0.428781 2.36106,0.429056 h 6.69157 10.43885 c 0.92881,0 3.08081,0.403369 3.58668,-0.620453 0.44164,-0.897207 0.55134,-4.608615 -0.46034,-5.106736 -1.19378,-0.588063 -3.42075,-0.161387 -4.73228,-0.161387 h -11.24186 m 22.03402,-27.829451 c -1.04388,0.696191 -0.62097,2.933854 -0.62097,4.007448 V 65.567608 78.14777 c 0,1.457955 -0.47641,3.945881 0.19804,5.268135 0.61294,1.203153 4.0096,0.620453 5.15518,0.620453 4.99727,0 10.84571,0.83698 15.2568,-2.020324 1.82814,-1.184134 3.13433,-2.866938 3.8142,-4.938917 0.72803,-2.217046 0.46838,-4.658132 0.46838,-6.959227 0,-5.293041 1.43199,-12.715862 -2.72213,-16.813518 -3.64283,-3.590157 -8.91044,-3.261193 -13.60524,-3.261193 h -5.62093 c -0.7146,2.64e-4 -1.6943,-0.14453 -2.32332,0.275151 m 6.33828,27.829456 V 55.931748 c 2.86398,0 6.98599,-0.779704 9.35748,1.17611 1.30085,1.07333 1.61133,2.582139 1.80673,4.177151 0.43899,3.554293 0.44702,7.962706 -0.0378,11.509505 -0.21411,1.587502 -0.52734,3.073833 -1.78532,4.190793 -2.24568,1.990614 -6.56042,1.162467 -9.34142,1.162467 M 75.112483,81.895081 c 0.0072,0.592076 -0.09985,1.449394 0.429058,1.866149 0.50723,0.399615 1.380069,0.273828 1.979901,0.27515 1.419151,0.003 4.089625,0.603579 4.266817,-1.343396 0.390782,-4.294392 0.01587,-8.796753 0.01587,-13.110402 0,-2.635415 0.169966,-5.088809 -1.662987,-7.225828 -3.37816,-3.938668 -9.4691,-4.418851 -14.129109,-2.850084 -2.38033,0.801119 -4.756373,2.430121 -5.448816,4.990043 -0.681202,2.517912 3.282083,2.320903 4.913489,2.445639 1.73258,0.132511 2.104899,-1.107318 3.48363,-1.828943 2.259879,-1.183072 6.38965,-0.04603 5.989498,3.115062 -0.190829,1.507482 -2.52326,1.086448 -3.584544,1.086448 -3.404404,0 -7.335302,-0.01965 -9.846518,2.701523 -3.239257,3.509865 -2.101156,9.880502 2.351953,11.683212 3.947763,1.598217 7.901678,0.393468 11.241845,-1.80458 M 93.848911,61.552389 h -0.267667 l -0.267667,-2.408967 -4.550267,2.65e-4 c -0.591264,0.0042 -1.449927,-0.09691 -1.866141,0.428799 -0.813166,1.026755 -0.275151,3.932498 -0.275151,5.191856 v 13.650812 c 0,1.17263 -0.575753,4.549998 0.429057,5.345766 0.449138,0.355731 1.179055,0.271144 1.712243,0.274886 1.339651,0.0091 4.202575,0.580569 4.701766,-1.086165 0.360266,-1.201808 0.116145,-2.754523 0.116145,-3.999153 V 70.65293 c 0,-2.308322 -0.01021,-4.543317 2.409243,-5.682754 2.086958,-0.982858 4.418578,0.387312 5.124408,2.470796 0.44561,1.31583 0.22855,2.912977 0.22855,4.282615 v 7.762217 c 0,1.118034 -0.53451,4.036362 0.864,4.465155 1.21919,0.373645 2.95205,0.108133 4.2205,0.08372 0.52724,-0.01021 1.19403,0.03326 1.55913,-0.427726 0.90547,-1.143184 0.31559,-4.327309 0.31559,-5.727187 v -8.029849 c 0,-3.16886 -0.0359,-6.410527 -2.43386,-8.807982 -2.82434,-2.823038 -9.983526,-3.75371 -12.019905,0.510435 M 128.3774,81.627089 c -0.0159,0.73607 -0.052,1.437885 -0.29677,2.141307 -1.56128,4.478527 -6.23548,3.489519 -9.87436,3.479613 -0.2465,1.327606 -0.89697,4.582397 0.007,5.727187 0.75855,0.960106 3.71114,0.74785 4.81045,0.672901 4.732,-0.323869 9.90407,-1.96518 11.50173,-6.935415 0.9224,-2.869879 0.81071,-5.859405 0.81071,-8.832877 V 66.90563 62.087696 c -2.7e-4,-0.714666 0.13758,-1.664328 -0.19861,-2.323855 -0.42851,-0.840184 -1.70128,-0.620181 -2.47804,-0.620445 -1.91699,-7.98e-4 -4.20124,-0.602785 -4.2826,1.873639 -4.35834,-3.704987 -11.01592,-2.818752 -14.11332,2.141307 -1.24892,1.999707 -1.50345,4.143959 -1.72429,6.423912 -0.56797,5.868771 1.04737,12.679998 7.80773,13.841917 0.96733,0.166223 1.96439,0.335925 2.9443,0.226432 1.9882,-0.221897 3.49166,-0.808342 5.0856,-2.023529 M 36.568955,61.552377 c -0.0021,-0.597428 0.125262,-1.476429 -0.275158,-1.979902 -0.628475,-0.790143 -2.582946,-0.429068 -3.472124,-0.429068 -0.920224,0 -2.520314,-0.298698 -2.859174,0.842603 -0.460117,1.550032 -0.08513,3.702047 -0.08513,5.313648 v 10.974173 c 0,2.080548 -0.507748,4.922862 0.08513,6.919625 0.417814,1.407633 3.591769,0.862945 4.732549,0.841269 0.530501,-0.0102 1.229909,0.0378 1.598749,-0.427726 0.656047,-0.828413 0.275158,-2.85489 0.275158,-3.853536 0,-3.215437 -0.684686,-7.340397 0.211179,-10.438854 0.581637,-2.011223 2.300028,-3.220526 4.339083,-3.433053 0.871518,-0.09071 2.536644,0.485278 3.074378,-0.403367 0.382751,-0.631952 0.4304,-1.604368 0.559421,-2.319832 0.173444,-0.961718 0.661931,-2.437611 0.219479,-3.374167 -0.428528,-0.906841 -1.664329,-0.897202 -2.514961,-0.907378 -2.683856,-0.03213 -3.88111,1.104648 -5.888584,2.675565 m 12.741564,-2.133812 c -0.52569,0.416222 -0.424783,1.274878 -0.4288,1.866149 l -2.69e-4,4.550267 v 11.777172 c 0,1.690021 -0.397207,3.956855 0.08512,5.581303 0.417814,1.407637 3.591767,0.862948 4.732551,0.841273 0.464389,-0.0079 1.055664,0.03439 1.444844,-0.273828 0.525428,-0.416218 0.424778,-1.274877 0.428792,-1.866152 l 2.68e-4,-4.550264 V 65.56731 c 0,-1.690027 0.397208,-3.956868 -0.08512,-5.581307 -0.417817,-1.407646 -3.591771,-0.86295 -4.73255,-0.841273 -0.464397,0.0079 -1.055664,-0.03439 -1.444843,0.273828 m 74.248913,5.176623 c 5.35298,-0.697258 5.74055,7.768117 4.28394,11.143078 -0.52703,1.221344 -1.62043,2.145053 -2.94563,2.351953 -7.21994,1.127399 -7.61742,-12.677047 -1.33831,-13.495027 m -53.264927,8.811731 c 1.038531,-0.136516 3.518429,-0.493298 4.388868,0.197822 0.538267,0.427462 0.403104,1.277288 0.311019,1.866141 -0.304329,1.949658 -1.629799,3.3846 -3.629241,3.690266 -1.066636,0.163012 -2.494888,0.191925 -3.451517,-0.364008 -1.526213,-0.886234 -1.747033,-3.068758 -0.488751,-4.291444 0.752401,-0.730981 1.863738,-0.966258 2.869618,-1.098754 M 33.101118,101.36645 c -2.319835,0.90312 -1.000255,4.41002 1.321454,3.6057 2.396118,-0.83027 1.11187,-4.55322 -1.321454,-3.6057 m -32.13133019,0.33532 v 19.00409 c 3.42126889,0 8.31307669,0.90547 11.23782919,-1.24143 2.799219,-2.05512 2.145318,-6.16293 2.145318,-9.19742 0,-1.32976 0.10439,-2.70742 -0.179328,-4.01496 -0.282657,-1.30347 -0.8766,-2.49965 -1.972681,-3.30585 -2.9041433,-2.13568 -7.844934,-1.24437 -11.23113819,-1.24437 M 77.253726,118.02927 v -12.04483 c 0,-0.99918 0.470285,-3.58508 -0.620442,-4.12122 -0.781847,-0.38409 -2.227224,-0.25965 -2.506396,0.68117 -0.460114,1.55004 -0.08512,3.70204 -0.08512,5.31365 v 8.02989 c 0,1.22 -0.26419,2.79894 0.08512,3.97534 0.299,1.00719 1.485799,0.84093 2.323852,0.84254 h 7.494561 c 0.808077,0 2.347405,0.27836 2.782623,-0.6204 0.505613,-1.04416 -0.131679,-1.94484 -1.18173,-2.04039 -2.718652,-0.24756 -5.562039,-0.0162 -8.292468,-0.0162 m 25.160314,2.67664 v -2.67633 h -9.635862 v -5.62092 h 6.691574 l -0.275151,-2.24756 -1.866141,-0.42878 -4.550278,-2.6e-4 v -5.35328 h 9.635858 v -2.67664 h -9.100542 l -3.318216,0.27515 -0.429057,3.73978 v 10.70652 l 0.429057,4.00746 3.318216,0.27515 h 9.100542 m 3.64102,-18.72893 c -0.57997,0.4596 -0.42775,1.48608 -0.42907,2.13382 v 5.62092 7.2269 c 0,0.90954 -0.25051,2.28931 0.16139,3.12683 0.46468,0.94402 2.19698,0.6204 3.05056,0.6204 2.71516,0 5.97721,0.45846 8.27266,-1.32201 3.02701,-2.34793 1.89987,-7.87757 1.89852,-11.25814 -5.3e-4,-1.58191 -0.0329,-3.01523 -1.13085,-4.27193 -1.90202,-2.17717 -4.51041,-2.152 -7.1667,-2.152 -1.15631,0 -3.70766,-0.47612 -4.65652,0.27515 m 21.78696,-0.27515 v 19.00408 c 3.33642,0 7.98144,0.83782 10.97311,-0.90122 3.35676,-1.95072 3.06528,-6.99054 -0.26653,-8.73463 2.70553,-2.42049 3.64556,-7.15597 -0.53556,-8.80102 -3.02672,-1.1911 -6.97262,-0.56721 -10.17093,-0.56721 m 31.31658,0 v 19.00408 l 2.93678,-0.42906 0.27515,-3.85355 v -10.17117 l -0.27515,-4.1212 -2.93678,-0.42908 m 50.32062,0 v 19.00409 c 0.78425,0 2.12793,0.24386 2.7837,-0.27515 0.52459,-0.41621 0.42292,-1.27488 0.42821,-1.86614 v -5.0856 c 0.003,-1.74972 0.36669,-4.09444 2.67663,-3.96462 3.49836,0.19699 2.40896,6.21995 2.40896,8.51488 0,0.66085 -0.16592,1.68923 0.27572,2.24757 0.5674,0.71603 2.13327,0.42907 2.93627,0.42907 v -6.95924 c 0,-1.40364 0.15788,-2.94001 -0.3372,-4.28261 -1.27141,-3.44108 -5.59685,-3.43866 -7.9603,-1.33831 v -4.28261 l -0.42822,-1.86616 -2.78369,-0.27515 m 15.79211,1.60599 v 3.4796 h -1.87364 v 2.67665 h 1.87364 v 6.15625 c 0,1.21465 -0.0935,2.6263 0.61031,3.68999 0.74144,1.12044 4.2585,2.24462 5.27026,0.96653 0.44164,-0.55672 0.27572,-1.5859 0.27572,-2.24757 -4.35218,-0.20209 -3.21195,-5.42981 -3.21195,-8.5652 0.8297,0 2.06903,0.22375 2.82921,-0.16139 0.81363,-0.41432 0.81363,-1.93947 0,-2.35382 -0.76016,-0.38513 -1.99945,-0.16138 -2.82921,-0.16138 v -3.47962 h -2.94445 M 4.5345232,104.53987 c 0.5835058,-0.28695 1.4269114,-0.16222 2.0561867,-0.16139 0.8011153,8e-4 1.6364917,-0.0378 2.4049521,0.22855 2.993276,1.03987 2.145319,5.33668 2.145319,7.8013 0,1.93867 0.249193,4.35246 -1.884348,5.29224 -0.5912671,0.26022 -1.2261642,0.30784 -1.8629343,0.32466 -0.823063,0.0215 -2.3610544,0.27484 -3.0505542,-0.27118 -0.580294,-0.45957 -0.4277248,-1.48606 -0.4290638,-2.13379 v -5.88853 c 0,-1.13114 -0.5808286,-4.60059 0.6204429,-5.19186 M 108.83796,118.02928 v -13.65081 c 1.88406,0 4.58104,-0.47536 6.09522,0.91512 0.75798,0.69618 0.84953,1.59366 0.86295,2.56449 0.0284,2.0511 0.004,4.10487 10e-4,6.15624 -0.002,1.14159 0.0333,2.26094 -0.86399,3.1065 -1.50133,1.4138 -4.20525,0.90841 -6.09523,0.90841 m 22.21603,-8.29754 v -5.35326 c 1.71117,0 4.07946,-0.40847 5.59175,0.55918 1.5808,1.01176 1.38836,3.59069 -0.25028,4.44132 -1.4617,0.75883 -3.73979,0.35283 -5.34148,0.35283 m -110.812374,5.08557 h 8.832877 c -2.68e-4,-2.44162 -0.187359,-5.1627 -2.153081,-6.899 -3.238453,-2.86105 -8.764088,-0.94567 -9.709473,3.15172 -0.796304,3.45016 -8.03e-4,8.32271 3.832666,9.51702 1.913255,0.59612 4.177952,0.4508 5.88457,-0.67615 0.596888,-0.39431 1.415133,-1.06022 1.332426,-1.87016 -0.108405,-1.06129 -1.329483,-1.30834 -2.1314,-0.93789 -0.824944,0.38117 -1.460637,0.98795 -2.408966,1.08083 -2.050835,0.20126 -3.378175,-1.51202 -3.479619,-3.3664 m 21.94836,-6.9592 c -0.465198,-1.40176 -1.956615,-1.07067 -3.211953,-1.07067 v 13.91849 c 0.859468,0 2.58616,0.32334 3.050556,-0.62049 0.319598,-0.64962 0.161386,-1.62256 0.161386,-2.32383 0,-1.96466 -0.528637,-4.84337 0.198615,-6.68758 0.787195,-1.99596 3.323038,-1.98098 4.389675,-0.26653 0.89747,1.44297 0.497315,3.72211 0.497315,5.34817 v 4.55028 c 0.803799,0 2.369622,0.28694 2.936799,-0.42907 0.751335,-0.94887 0.275151,-3.50022 0.275151,-4.65652 0,-2.06234 0.343939,-4.49194 -0.527288,-6.42365 -1.425568,-3.16111 -5.309089,-3.07039 -7.770248,-1.33859 m 14.453799,6.95923 h 8.832862 c -2.68e-4,-2.44163 -0.187352,-5.1627 -2.153081,-6.89901 -3.238456,-2.86105 -8.764086,-0.94566 -9.709474,3.15173 -0.796294,3.45016 -8.01e-4,8.3227 3.832668,9.51701 1.913252,0.59612 4.177951,0.4508 5.884569,-0.67615 0.596851,-0.3943 1.415092,-1.06022 1.332383,-1.87017 -0.108397,-1.06129 -1.32948,-1.30833 -2.131401,-0.93789 -0.824941,0.38118 -1.460634,0.98795 -2.408963,1.08083 -2.050837,0.20126 -3.378178,-1.51202 -3.47962,-3.36639 m 90.470054,0.26767 9.10057,-0.26767 c -0.007,-2.46892 -0.32757,-5.43972 -2.42049,-7.07755 -3.39584,-2.65735 -8.79863,-0.61002 -9.5363,3.59792 -0.70393,4.01495 0.5056,9.09466 5.26521,9.58929 1.59713,0.16592 3.50504,-0.25077 4.79276,-1.2382 0.53508,-0.41036 1.27274,-1.12151 1.01391,-1.87685 -0.71301,-2.07947 -3.07304,0.10979 -4.2007,0.33165 -2.09233,0.41196 -3.45686,-1.27836 -4.01496,-3.05858 m 21.41305,-0.26767 h 8.83287 c 0,-2.49302 -0.13519,-5.12255 -2.1528,-6.89901 -3.38407,-2.97962 -8.80664,-0.75751 -9.71269,3.41939 -0.79229,3.65173 0.32757,8.37704 4.37094,9.39416 1.8003,0.45317 3.78102,0.20531 5.3519,-0.8209 0.60464,-0.39478 1.4628,-1.05058 1.36081,-1.87658 -0.2931,-2.36962 -2.79225,-0.30887 -3.76868,-0.004 -2.30672,0.71999 -4.05725,-1.03024 -4.28235,-3.21277 m 38.27581,1.60597 c -0.82979,-0.35063 -1.94324,-0.78132 -2.83991,-0.37387 -1.3624,0.61993 -1.67826,2.44216 -3.58402,2.00721 -2.89611,-0.66141 -3.29491,-5.82328 -1.50158,-7.7285 1.7077,-1.81155 4.04439,-0.41376 4.71356,1.54495 0.81901,-0.007 2.13328,0.11402 2.7703,-0.51874 1.17236,-1.16111 -1.3517,-3.43704 -2.23499,-3.91991 -1.25802,-0.68759 -2.87737,-0.90898 -4.28259,-0.70875 -4.00692,0.57118 -5.08829,3.70205 -5.08561,7.28872 0,1.84608 0.17934,3.56527 1.48018,5.00503 3.32436,3.68279 9.25845,1.86829 10.56466,-2.59607 m 45.50269,-8.56509 c -0.46572,-1.40177 -1.9566,-1.07067 -3.21194,-1.07067 v 13.91849 c 0.85917,0 2.58563,0.32334 3.05135,-0.62041 0.31854,-0.64961 0.16063,-1.62257 0.16063,-2.32384 0,-1.96465 -0.52724,-4.84338 0.19805,-6.68757 0.78689,-1.99596 3.32438,-1.98097 4.38968,-0.26653 0.89933,1.44297 0.49785,3.72211 0.49785,5.34816 v 4.55028 c 0.80296,0 2.36883,0.28694 2.93627,-0.42907 0.75212,-0.94888 0.27571,-3.50023 0.27571,-4.65653 0,-2.06235 0.34262,-4.49219 -0.52733,-6.42364 -1.42665,-3.16109 -5.31045,-3.07037 -7.77027,-1.33858 m 20.07472,11.50949 c -0.22752,1.68817 -0.84046,3.21893 -2.67661,3.64183 -0.87788,0.20183 -2.5669,-0.26256 -3.05137,0.72586 -0.62901,1.28772 0.19,2.26389 1.44538,2.31876 1.97267,0.086 4.00156,-0.25833 5.57008,-1.54442 1.3035,-1.06636 1.52835,-2.50586 1.73177,-4.07141 0.38003,-2.90789 0.19276,-5.90278 0.19276,-8.83289 0,-1.13836 0.43095,-3.44482 -0.31586,-4.38886 -0.56475,-0.71358 -2.09579,-0.42908 -2.89611,-0.42908 v 1.07068 c -0.85114,-0.55436 -1.65951,-0.99813 -2.67662,-1.16864 -8.50633,-1.42557 -8.6562,15.34431 0,13.92732 1.01443,-0.16592 1.85224,-0.66784 2.67662,-1.2492 M 32.286355,106.78742 v 13.9185 l 2.936799,-0.42907 0.275158,-3.05056 v -7.2269 l -0.275158,-2.78289 -2.936799,-0.42907 m 148.017605,0 v 7.49457 c 0,1.19619 -0.18925,2.59232 0.1748,3.74701 0.71329,2.26444 3.54867,3.27298 5.7138,2.76122 0.8913,-0.2109 1.63006,-0.69326 2.40896,-1.15498 v 1.07067 c 0.78425,0 2.12792,0.24386 2.7837,-0.27515 0.629,-0.49861 0.42822,-1.70099 0.42822,-2.40148 v -6.42391 c 0,-1.06609 0.52724,-4.09175 -0.62097,-4.65652 -0.7816,-0.3841 -2.22697,-0.25966 -2.50533,0.68116 -0.80834,2.72025 0.85652,6.17954 -0.43899,8.79192 -0.96358,1.94885 -3.34553,2.24838 -4.46782,0.26389 -0.81741,-1.44512 -0.53215,-3.489 -0.53215,-5.08052 v -4.81794 h -2.9443 m 62.36546,12.84782 v 1.07068 h 2.9443 v -13.9185 h -2.9443 c 0,2.7829 0.62362,6.43356 -0.21411,9.10056 -0.46838,1.48444 -1.93521,2.70581 -3.52244,1.97749 -1.19111,-0.54737 -1.54711,-1.84207 -1.60599,-3.04814 -0.13115,-2.66407 -0.0102,-5.36237 -0.0102,-8.02991 -0.80295,0 -2.36881,-0.28694 -2.93626,0.42907 -0.78424,0.98795 -0.27571,3.71623 -0.27571,4.92419 0,1.98819 -0.31314,4.29331 0.52723,6.15598 1.53638,3.40868 5.40947,2.89852 8.03791,1.33857 M 25.862426,112.40834 h -5.620923 c 0.34903,-3.84684 5.226922,-3.82194 5.620923,0 m 36.40216,0 h -5.620901 c 0.34904,-3.84684 5.226921,-3.82194 5.62092,0 m 90.737735,0 h -5.8886 c 0.27277,-0.93118 0.52914,-1.92046 1.36751,-2.51522 2.13755,-1.51604 4.19722,0.4422 4.52109,2.51522 m 21.14537,0 h -5.62093 c 0.13758,-0.91323 0.3394,-1.88863 1.13087,-2.47801 2.08083,-1.54977 4.37123,0.30489 4.49006,2.47801 m 94.49038,-2.82813 c 4.51012,-1.26255 5.1659,7.39179 1.60062,8.33183 -4.3763,1.15362 -5.1097,-7.34976 -1.60062,-8.33183 m -137.58411,8.44906 v -5.62093 c 1.66112,0 4.09551,-0.44221 5.60619,0.35282 1.82735,0.96171 1.67906,3.73283 0.003,4.74942 -1.52539,0.92504 -3.9009,0.51874 -5.60913,0.51874 z"
       id="path24-9"
       sodipodi:nodetypes="ccccsscccscscccsccsccccccccsccccssccsccccscccsccsccssccccccccsccsccscscsscscsccccccccccscsscccscssscccccccsssccssscsscssssccccccccscccccccscccsscsscscscccsccccccscccccsccccccccccscccccccccsccccsccssccsscccccccccccccccccccccccscssccsccccccccccccccccccccsccsccccccccccsscccccccccccsccscscccscccccccscccccscsccccccssccsccsccccccscssccccccsscccccsccccccccccccsccccccccsccsccsccccccccsccccccccccccccscccccssccccsccccccccccccscccccccccccccccccccccccsc" />
    <path
       style="fill:#45a29e;fill-opacity:1;stroke:none;stroke-width:0.267664"
       d="M 260.34322,89.014771 254.87756,80.449565 244.17104,63.051469 220.57386,24.775664 207.88128,4.1656247 h 25.69566 c 1.90844,0 4.30133,0.3883783 6.15625,-0.085077 0.94213,-0.240893 1.61937,-1.0596724 1.54977,-2.0559147 -0.19275,-2.81367281 -5.28903,-1.87391019 -7.17069,-1.87391019 h -23.82201 c -1.97268,0 -4.21301,-0.29523692 -6.15626,0.0610021 -1.05458,0.19378962 -1.87631,0.95127489 -1.80136,2.08054799 0.14721,2.2250806 2.51068,4.8505784 3.66164,6.691307 2.94696,4.7065811 5.79757,9.4728391 8.73383,14.1861181 10.52182,16.894348 21.03831,33.816002 31.32192,50.855968 3.19322,5.29142 6.45067,10.553411 9.72954,15.792107 0.9449,1.50908 2.15737,4.971304 4.296,4.971304 1.00642,0 1.69164,-0.739562 2.22159,-1.503192 1.24733,-1.789602 2.33404,-3.737919 3.45287,-5.609411 0.51931,-0.867501 1.28477,-1.874185 1.19645,-2.943225 -0.11509,-1.369638 -1.61134,-2.203402 -2.83187,-1.558067 -1.05727,0.560219 -1.64078,1.925302 -2.25104,2.895314 -0.59961,0.952872 -1.18041,1.868822 -1.52035,2.944287 M 247.2331,0.34929595 c -1.53906,0.61402477 -1.74516,2.68600395 -0.25689,3.50076835 0.64242,0.3519699 1.41594,0.3115553 2.12524,0.3153083 1.57921,0.00809 3.8597,0.4057687 5.34256,-0.1983428 1.64345,-0.6696952 1.64345,-2.9480388 0,-3.61773385 -0.65851,-0.26739675 -1.43738,-0.19753285 -2.13064,-0.19860518 -1.523,-0.003035 -3.64824,-0.37338607 -5.08023,0.19860499 m 65.03674,3.81633914 -5.93944,9.6358771 c -0.73076,1.19349 -1.50961,3.247544 -2.7275,4.007437 -0.93146,0.581902 -2.59096,0.275158 -3.64556,0.275158 h -8.29754 -31.85189 -19.00407 c -1.73713,0 -5.40413,-0.727243 -6.18034,1.350093 -0.68787,1.838574 1.68092,4.414027 2.58829,5.876806 3.08616,4.984155 6.18839,9.966967 9.21296,14.989125 10.97686,18.218211 22.48101,36.117633 33.45788,54.335576 2.70339,4.48764 5.52455,8.904883 8.24401,13.383153 0.8538,1.40977 2.00213,4.37709 3.80083,4.72104 1.15629,0.2208 1.97802,-0.64508 2.55885,-1.51311 1.27942,-1.90816 2.3929,-3.93651 3.61076,-5.88456 0.59423,-0.95048 1.45878,-2.04334 1.50696,-3.21169 0.0614,-1.47162 -1.5016,-2.537986 -2.83188,-1.82493 -1.09474,0.58856 -1.76122,2.14024 -2.38221,3.16297 -0.71198,1.17424 -1.42665,2.34045 -2.19483,3.47963 -1.22326,-2.61855 -2.99518,-5.02486 -4.49677,-7.494569 -3.20392,-5.278853 -6.50153,-10.50229 -9.68942,-15.792111 -1.13487,-1.884889 -2.29921,-3.75532 -3.46621,-5.620922 -0.47912,-0.764446 -1.26606,-1.714921 -1.06531,-2.676637 0.37206,-1.798956 2.18145,-3.802953 3.14238,-5.353253 2.43037,-3.920728 4.81792,-7.867693 7.26437,-11.777172 7.78095,-12.429467 15.26481,-25.043347 23.04576,-37.472814 2.83724,-4.533936 5.62093,-9.103744 8.43942,-13.6508005 0.86722,-1.4022848 2.83187,-3.5826713 2.43306,-5.3492468 -0.28372,-1.24891945 -1.46681,-1.57065109 -2.5883,-1.60597756 -2.67128,-0.08376377 -5.35862,-0.004047 -8.02988,-0.004047 h -33.99321 c -3.06742,0 -6.32219,-0.31316314 -9.36819,0.0291353 -1.20716,0.13570127 -2.30459,1.04388026 -2.01283,2.37577436 0.32655,1.4954357 1.83082,1.6033069 3.08346,1.6097309 2.9443,0.015458 5.88859,2.627e-4 8.83289,2.627e-4 h 38.54346 M 344.3894,22.098979 c -3.32438,6.244839 -7.40357,12.187493 -11.12942,18.201084 -7.17071,11.576682 -14.23967,23.219219 -21.41305,34.79618 -2.59098,4.182498 -5.13644,8.393903 -7.71939,12.580162 -0.75752,1.226156 -2.13596,3.788497 0.13916,4.433022 1.98336,0.560762 3.03529,-1.741682 3.87574,-3.094716 2.48393,-4.00932 4.91163,-8.053714 7.42499,-12.044832 8.98812,-14.270452 17.64433,-28.756634 26.5254,-43.093729 2.09849,-3.384065 4.18091,-6.776426 6.26065,-10.171193 0.77357,-1.260696 2.152,-2.912178 1.45876,-4.499682 -0.43899,-1.004275 -1.51765,-1.103578 -2.47855,-1.119905 -2.13864,-0.03695 -4.28262,-0.001 -6.42392,-0.001 h -17.66576 c -2.22963,0 -5.67178,-0.648554 -7.75153,0.198604 -1.64344,0.669699 -1.64344,2.948039 0,3.617734 0.87788,0.357325 2.00748,0.198604 2.9336,0.198604 h 5.88859 8.0299 12.04482"
       id="path24-3"
       sodipodi:nodetypes="cccccsccssccccccsccccscccccccccccsccscccccccsccccccccccccccsssccsccccccccccccssccsccc" />
  </g>
</svg>
